<?xml version="1.0" encoding="utf-8" ?>	<!-- Generator: Assembly 2.2 - http://assemblyapp.co -->	<svg version="1.1" xmlns="http://www.w3.org/2000/svg" xmlns:xlink="http://www.w3.org/1999/xlink" width="2048.00" height="2048.00" viewBox="0 0 2048.0 2048.0">		<g id="document" transform="matrix(1,0,0,1,1024.0,1024.0)">			<defs>				<filter id="TNNLRQKd" x="-21.63%" y="-18.09%" width="161.85%" height="158.31%" filterUnits="objectBoundingBox">					<feOffset dx="-29.64" dy="39.52" in="SourceAlpha" result="shadowOffsetOuter1" />					<feGaussianBlur stdDeviation="196.37" in="shadowOffsetOuter1" result="shadowBlurOuter1" />					<feFlood flood-color="#000000" flood-opacity="0.14" />					<feComposite in2="shadowBlurOuter1" operator="in" />					<feMerge>						<feMergeNode />						<feMergeNode in="SourceGraphic" />					</feMerge>				</filter>			</defs>			<path d="M-156.647,963.583 C375.859,1050.15 877.015,689.153 963.583,156.647 C1050.15,-375.859 689.153,-877.015 156.647,-963.583 C-375.859,-1050.15 -877.015,-689.153 -963.583,-156.647 C-1050.15,375.859 -689.153,877.015 -156.647,963.583 Z " fill="#30475e" fill-opacity="1.00" filter="url(#TNNLRQKd)" />			<defs>				<filter id="AjmATc1s" x="-12.02%" y="-14.38%" width="152.24%" height="154.60%" filterUnits="objectBoundingBox">					<feOffset dx="114.29" dy="80.96" in="SourceAlpha" result="shadowOffsetOuter1" />					<feGaussianBlur stdDeviation="141.96" in="shadowOffsetOuter1" result="shadowBlurOuter1" />					<feFlood flood-color="#000000" flood-opacity="0.37" />					<feComposite in2="shadowBlurOuter1" operator="in" />					<feMerge>						<feMergeNode />						<feMergeNode in="SourceGraphic" />					</feMerge>				</filter>			</defs>			<path d="M-499.043,499.043 C-223.256,774.83 223.256,774.83 499.043,499.043 C774.83,223.256 774.83,-223.256 499.043,-499.043 C223.256,-774.83 -223.256,-774.83 -499.043,-499.043 C-774.83,-223.256 -774.83,223.256 -499.043,499.043 Z " fill="#30475e" fill-opacity="1.00" filter="url(#AjmATc1s)" />			<defs>				<filter id="qv49eClv" x="-33.22%" y="-6.04%" width="189.53%" height="121.31%" filterUnits="objectBoundingBox">					<feOffset dx="-10.04" dy="11.71" in="SourceAlpha" result="shadowOffsetOuter1" />					<feGaussianBlur stdDeviation="27.89" in="shadowOffsetOuter1" result="shadowBlurOuter1" />					<feFlood flood-color="#000000" flood-opacity="0.27" />					<feComposite in2="shadowBlurOuter1" operator="in" />					<feMerge>						<feMergeNode />						<feMergeNode in="SourceGraphic" />					</feMerge>				</filter>			</defs>			<path d="M456.811,-89.467 L456.811,-621.433 C456.811,-676.313 412.639,-720.485 357.759,-720.485 C302.879,-720.485 258.707,-676.313 258.707,-621.433 L258.707,-89.467 C258.707,-34.5868 302.879,9.58507 357.759,9.58508 C412.305,9.58508 456.811,-34.5868 456.811,-89.467 Z " fill="#b9d3ff" fill-opacity="1.00" filter="url(#qv49eClv)" />			<path d="M-523.832,99.5674 L-523.832,-101.367 C-523.832,-156.247 -568.004,-200.419 -622.885,-200.419 C-677.765,-200.419 -721.937,-156.247 -721.937,-101.367 L-721.937,99.5674 C-721.937,154.448 -677.765,198.619 -622.885,198.619 C-568.339,198.619 -523.832,154.448 -523.832,99.5674 Z " fill="#b9d3ff" fill-opacity="1.00" />			<defs>				<filter id="JDViuiqb" x="-60.30%" y="-19.59%" width="270.21%" height="174.16%" filterUnits="objectBoundingBox">					<feOffset dx="-8.68" dy="25.12" in="SourceAlpha" result="shadowOffsetOuter1" />					<feGaussianBlur stdDeviation="44.58" in="shadowOffsetOuter1" result="shadowBlurOuter1" />					<feFlood flood-color="#000000" flood-opacity="0.33" />					<feComposite in2="shadowBlurOuter1" operator="in" />					<feMerge>						<feMergeNode />						<feMergeNode in="SourceGraphic" />					</feMerge>				</filter>			</defs>			<path d="M-523.832,63.0172 L-523.832,-101.546 C-523.832,-146.492 -560.009,-182.668 -604.955,-182.668 C-649.901,-182.668 -686.078,-146.492 -686.078,-101.546 L-686.078,63.0172 C-686.078,107.964 -649.901,144.14 -604.955,144.14 C-560.283,144.14 -523.832,107.964 -523.832,63.0172 Z " fill="#b9d3ff" fill-opacity="1.00" filter="url(#JDViuiqb)" />			<path d="M-196.951,455.69 L-196.951,-455.69 C-196.951,-510.57 -241.123,-554.742 -296.003,-554.742 C-350.883,-554.742 -395.055,-510.57 -395.055,-455.69 L-395.055,455.69 C-395.055,510.57 -350.884,554.742 -296.003,554.742 C-241.458,554.742 -196.951,510.57 -196.951,455.69 Z " fill="#b9d3ff" fill-opacity="1.00" />			<defs>				<filter id="ylRBlKxg" x="-66.99%" y="-11.11%" width="288.58%" height="132.82%" filterUnits="objectBoundingBox">					<feOffset dx="-10.05" dy="-2.28" in="SourceAlpha" result="shadowOffsetOuter1" />					<feGaussianBlur stdDeviation="49.32" in="shadowOffsetOuter1" result="shadowBlurOuter1" />					<feFlood flood-color="#000000" flood-opacity="0.22" />					<feComposite in2="shadowBlurOuter1" operator="in" />					<feMerge>						<feMergeNode />						<feMergeNode in="SourceGraphic" />					</feMerge>				</filter>			</defs>			<path d="M-232.81,424.134 L-232.81,-322.278 C-232.81,-367.224 -268.986,-403.4 -313.933,-403.4 C-358.879,-403.4 -395.055,-367.224 -395.055,-322.278 L-395.055,424.134 C-395.055,469.08 -358.879,505.256 -313.933,505.256 C-269.261,505.256 -232.81,469.08 -232.81,424.134 Z " fill="#b9d3ff" fill-opacity="1.00" filter="url(#ylRBlKxg)" />			<defs>				<filter id="6qCq3sr3" x="-29.38%" y="-5.55%" width="202.22%" height="113.89%" filterUnits="objectBoundingBox">					<feOffset dx="13.94" dy="-23.98" in="SourceAlpha" result="shadowOffsetOuter1" />					<feGaussianBlur stdDeviation="36.08" in="shadowOffsetOuter1" result="shadowBlurOuter1" />					<feFlood flood-color="#000000" flood-opacity="0.20" />					<feComposite in2="shadowBlurOuter1" operator="in" />					<feMerge>						<feMergeNode />						<feMergeNode in="SourceGraphic" />					</feMerge>				</filter>			</defs>			<path d="M129.93,766.351 L129.93,-766.351 C129.93,-821.232 85.7582,-865.403 30.878,-865.403 C-24.0022,-865.403 -68.1741,-821.232 -68.1741,-766.351 L-68.1743,766.351 C-68.1743,821.231 -24.0025,865.403 30.8777,865.403 C85.4233,865.403 129.93,821.231 129.93,766.351 Z " fill="#b9d3ff" fill-opacity="1.00" filter="url(#6qCq3sr3)" />			<path d="M213.406,-442.33 C147.561,-442.33 88.0886,-468.88 45.0772,-512.953 C3.65879,-470.473 -22.3605,-412.062 -22.3605,-347.811 C-22.3605,-283.559 3.65875,-225.149 45.0771,-182.668 C88.0885,-226.742 147.03,-253.292 213.406,-253.292 C279.781,-253.292 338.723,-226.211 381.734,-182.668 C423.153,-225.149 449.172,-283.559 449.172,-347.811 C449.172,-412.062 423.153,-470.473 381.734,-512.953 C338.723,-468.88 279.25,-442.33 213.406,-442.33 Z " fill="#b9d3ff" fill-opacity="1.00" />			<defs>				<filter id="OHHd2Uh8" x="-61.44%" y="-8.58%" width="296.15%" height="124.00%" filterUnits="objectBoundingBox">					<feOffset dx="9.59" dy="-12.33" in="SourceAlpha" result="shadowOffsetOuter1" />					<feGaussianBlur stdDeviation="54.64" in="shadowOffsetOuter1" result="shadowBlurOuter1" />					<feFlood flood-color="#000000" flood-opacity="0.18" />					<feComposite in2="shadowBlurOuter1" operator="in" />					<feMerge>						<feMergeNode />						<feMergeNode in="SourceGraphic" />					</feMerge>				</filter>			</defs>			<path d="M129.93,545.879 L129.93,-709.389 C129.93,-754.335 93.7537,-790.511 48.8074,-790.511 C3.86109,-790.511 -32.3152,-754.335 -32.3152,-709.389 L-32.3155,545.879 C-32.3155,590.825 3.86079,627.002 48.8071,627.002 C93.4794,627.002 129.93,590.825 129.93,545.879 Z " fill="#b9d3ff" fill-opacity="1.00" filter="url(#OHHd2Uh8)" />		</g>	</svg>